<?xml version="1.0" encoding="UTF-8" standalone="no"?>
<svg
   xmlns:dc="http://purl.org/dc/elements/1.1/"
   xmlns:cc="http://creativecommons.org/ns#"
   xmlns:rdf="http://www.w3.org/1999/02/22-rdf-syntax-ns#"
   xmlns:svg="http://www.w3.org/2000/svg"
   xmlns="http://www.w3.org/2000/svg"
   xmlns:sodipodi="http://sodipodi.sourceforge.net/DTD/sodipodi-0.dtd"
   xmlns:inkscape="http://www.inkscape.org/namespaces/inkscape"
   viewBox="0 0 1223.0533 755.90668"
   height="755.90668"
   width="1223.0533"
   xml:space="preserve"
   id="svg2"
   version="1.1"
   sodipodi:docname="FSR_DE_color.svg"
   inkscape:version="0.92.3 (2405546, 2018-03-11)"><sodipodi:namedview
     pagecolor="#ffffff"
     bordercolor="#666666"
     borderopacity="1"
     objecttolerance="10"
     gridtolerance="10"
     guidetolerance="10"
     inkscape:pageopacity="0"
     inkscape:pageshadow="2"
     inkscape:window-width="1920"
     inkscape:window-height="1017"
     id="namedview18"
     showgrid="false"
     inkscape:zoom="0.28616904"
     inkscape:cx="59.151631"
     inkscape:cy="-137.85626"
     inkscape:window-x="-8"
     inkscape:window-y="-8"
     inkscape:window-maximized="1"
     inkscape:current-layer="g14" /><metadata
     id="metadata8"><rdf:RDF><cc:Work
         rdf:about=""><dc:format>image/svg+xml</dc:format><dc:type
           rdf:resource="http://purl.org/dc/dcmitype/StillImage" /></cc:Work></rdf:RDF></metadata><defs
     id="defs6"><clipPath
       id="clipPath20"
       clipPathUnits="userSpaceOnUse"><path
         id="path18"
         d="M 0,0 H 9172.92 V 5669 H 0 Z" /></clipPath></defs><g
     transform="matrix(1.3333333,0,0,-1.3333333,0,755.90667)"
     id="g10"><g
       transform="scale(0.1)"
       id="g12"><g
         id="g14"><g
           clip-path="url(#clipPath20)"
           id="g16"><path
             id="path22"
             style="fill:#4f5358;fill-opacity:1;fill-rule:nonzero;stroke:none"
             d="M 1597.31,0 H 1288.75 C 550.586,0 363.027,193.629 363.027,834.98 v 1064.86 c 0,375.14 -78.656,556.63 -363.027,756.35 v 350.88 c 284.371,199.69 363.027,375.17 363.027,750.29 v 1076.99 c 0,641.34 187.559,834.95 925.723,834.95 h 302.53 c 66.54,0 121.01,-54.45 121.01,-121 v -199.67 c 0,-66.55 -54.47,-121.02 -121.01,-121.02 h -272.3 c -356.964,0 -417.449,-72.59 -417.449,-393.26 V 3757.36 c 0,-423.53 -102.871,-707.89 -429.582,-931.78 320.653,-223.86 429.582,-502.22 429.582,-925.74 V 834.98 c 0,-320.679 60.485,-393.289 417.449,-393.289 h 278.33 c 66.56,0 121.03,-54.453 121.03,-121.011 V 121.039 C 1718.34,54.4883 1663.87,0 1597.31,0" /><path
             id="path24"
             style="fill:#4f5358;fill-opacity:1;fill-rule:nonzero;stroke:none"
             d="M 7454.58,121.039 V 320.68 c 0,66.558 54.47,121.011 121.03,121.011 h 278.33 c 356.97,0 417.45,72.61 417.45,393.289 v 1064.86 c 0,423.52 108.93,701.88 429.58,925.74 -326.71,223.89 -429.58,508.25 -429.58,931.78 v 1076.99 c 0,320.67 -60.48,393.26 -417.45,393.26 h -272.3 c -66.54,0 -121.01,54.47 -121.01,121.02 v 199.67 c 0,66.55 54.47,121 121.01,121 h 302.53 c 738.16,0 925.72,-193.61 925.72,-834.95 V 3757.36 c 0,-375.12 78.65,-550.6 363.03,-750.29 V 2656.19 C 8888.54,2456.47 8809.89,2274.98 8809.89,1899.84 V 834.98 C 8809.89,193.629 8622.33,0 7884.17,0 h -308.56 c -66.56,0 -121.03,54.4883 -121.03,121.039" /><path
             id="path26"
             style="fill:#b00c36;fill-opacity:1;fill-rule:nonzero;stroke:none"
             d="m 3148.54,4564.76 h -695.13 c -197.65,0 -269.21,-68.14 -269.21,-293.04 V 3903.7 h 923.46 c 37.48,0 68.14,-30.66 68.14,-68.15 v -245.34 c 0,-37.48 -30.66,-68.16 -68.14,-68.16 H 2184.2 V 2479.33 c 0,-37.47 -30.66,-68.15 -68.15,-68.15 h -333.94 c -37.48,0 -68.15,30.68 -68.15,68.15 v 1792.39 c 0,579.28 344.17,698.55 787.15,698.55 405.5,0 538.39,-30.67 647.43,-47.71 51.12,-6.81 68.16,-23.86 68.16,-71.56 v -218.08 c 0,-37.49 -30.66,-68.16 -68.16,-68.16" /><path
             id="path28"
             style="fill:#e25617;fill-opacity:1;fill-rule:nonzero;stroke:none"
             d="m 4323.85,2383.92 c -255.57,0 -439.58,23.86 -603.15,61.35 -34.07,6.82 -64.74,30.67 -64.74,68.15 v 245.33 c 0,37.5 30.67,64.75 64.74,64.75 3.42,0 3.42,0 6.82,0 136.31,-17.03 477.06,-34.06 603.13,-34.06 303.29,0 395.29,109.03 395.29,306.67 0,132.89 -64.75,201.05 -289.64,333.94 l -449.81,269.2 c -316.89,187.41 -402.09,385.05 -402.09,623.59 0,374.83 218.09,647.43 851.9,647.43 224.89,0 538.4,-34.08 654.24,-61.34 34.08,-6.81 61.34,-30.66 61.34,-64.74 v -252.16 c 0,-34.07 -23.84,-61.33 -57.93,-61.33 -3.41,0 -3.41,0 -6.82,0 -224.89,20.44 -449.8,34.06 -671.28,34.06 -252.16,0 -357.79,-88.59 -357.79,-241.92 0,-112.46 57.92,-180.61 279.41,-303.28 l 408.91,-228.31 c 374.83,-207.86 473.65,-425.94 473.65,-695.14 0,-344.15 -214.68,-712.19 -896.18,-712.19" /><path
             id="path30"
             style="fill:#f89c0e;fill-opacity:1;fill-rule:nonzero;stroke:none"
             d="m 6916.93,4200.16 c 0,255.56 -170.37,364.6 -511.13,364.6 -71.56,0 -241.93,-6.8 -303.28,-13.62 v -766.7 c 54.52,-3.41 245.34,-10.22 303.28,-10.22 350.97,0 511.13,95.4 511.13,395.28 z m 511.11,-1788.98 h -415.7 c -37.5,0 -51.11,34.09 -68.16,68.15 l -490.67,909.83 h -47.71 c -88.61,0 -224.89,10.22 -303.28,13.63 v -923.46 c 0,-37.47 -27.27,-68.15 -64.74,-68.15 h -340.76 c -37.5,0 -68.14,30.68 -68.14,68.15 v 2344.41 c 0,68.15 40.88,92.01 109.02,102.23 177.2,27.26 419.14,44.3 667.9,44.3 524.76,0 981.37,-187.41 981.37,-770.11 v -30.66 c 0,-361.22 -180.59,-586.11 -460.02,-695.16 l 534.99,-995.01 c 6.82,-10.21 6.82,-20.44 6.82,-27.24 0,-23.84 -13.66,-40.91 -40.92,-40.91" /><path
             id="path32"
             style="fill:#4f5358;fill-opacity:1;fill-rule:nonzero;stroke:none"
             d="m 4287.44,1424.99 c 0,289.43 -146.62,364.66 -339.57,364.66 -71.38,0 -121.55,-3.87 -162.07,-5.81 V 782.52 c 40.52,-1.93 90.69,-5.809 162.07,-5.809 192.95,0 339.57,75.269 339.57,364.659 z M 3947.87,550.98 c -136.98,0 -322.21,13.5 -380.09,23.161 -32.79,5.781 -50.16,21.211 -50.16,59.8 V 1932.43 c 0,38.59 17.37,54.02 50.16,59.8 57.88,9.67 243.11,23.15 380.09,23.15 385.88,0 605.84,-208.37 605.84,-590.39 v -283.62 c 0,-382.011 -219.96,-590.39 -605.84,-590.39" /><path
             id="path34"
             style="fill:#4f5358;fill-opacity:1;fill-rule:nonzero;stroke:none"
             d="m 5616.72,578 c -61.75,-9.648 -136.98,-27.02 -366.57,-27.02 -250.83,0 -445.71,67.532 -445.71,395.532 v 673.358 c 0,327.98 194.88,395.51 445.71,395.51 229.59,0 304.82,-17.35 366.57,-27 28.94,-3.86 38.58,-13.5 38.58,-40.53 v -123.47 c 0,-21.2 -17.33,-38.6 -38.58,-38.6 h -393.6 c -111.91,0 -152.41,-38.56 -152.41,-165.91 V 1411.5 h 522.86 c 21.2,0 38.59,-17.37 38.59,-38.59 v -138.92 c 0,-21.22 -17.39,-38.59 -38.59,-38.59 H 5070.71 V 946.512 c 0,-127.34 40.5,-165.922 152.41,-165.922 h 393.6 c 21.25,0 38.58,-17.36 38.58,-38.59 V 618.512 c 0,-27 -9.64,-36.653 -38.58,-40.512" /></g></g></g></g></svg>